<svg height="24" viewBox="0 0 24 24" width="24" xmlns="http://www.w3.org/2000/svg"><path d="m12 0c6.627417 0 12 5.372583 12 12s-5.372583 12-12 12-12-5.372583-12-12 5.372583-12 12-12zm2.2879321 6.00081499c-.0208225-.00374961-.0416225.00562087-.0523493.02436227-.1406422.246133-.2964281.56723359-.4055211.81961719-1.2297915-.18116096-2.4532732-.18116096-3.6578478 0-.1091155-.2579936-.27055773-.57348419-.41183096-.81961719-.01072676-.01811609-.03152676-.02748657-.0523493-.02436227-1.14276053.19366262-2.23632671.53287931-3.25674358.99391953-.00883381.0037474-.01640564.01000044-.02143099.0181161-2.07426474 3.04922498-2.64249255 6.02350208-2.36373898 8.96090398.00126129.0143687.00945983.0281165.02081194.036853 1.36854059.9889127 2.69420591 1.5892717 3.99525376 1.9872049.02082254.0062531.04288451-.0012417.05613521-.0181161.30776338-.4135437.58210703-.8495939.81732956-1.3081506.01388169-.0268526.00063099-.0587166-.02774084-.0693379-.43515492-.162424-.84950984-.3604593-1.24809011-.5853472-.03152676-.0181161-.03405071-.0624861-.00504789-.0837288.08387605-.061843.16777464-.1261918.24786478-.1911614.01449014-.011863.03468169-.0143687.05171831-.0068739 2.61850139 1.1763489 5.45334069 1.1763489 8.04094629 0 .0170366-.0081156.0372282-.00561.0523493.0062531.0801127.0649696.1639887.1299392.2484958.1917822.0290028.0212427.0271098.0656127-.0044169.0837288-.3985803.2292562-.8129352.4229232-1.2487211.5847264-.0283719.0106213-.0409916.0431061-.0271099.0699587.2402704.4579137.5146141.8939639.8166986 1.3075298.0126197.0174952.0353127.02499.0561352.0187369 1.3073577-.3979332 2.633014-.9982922 4.0015548-1.9872049.0119888-.0087365.0195606-.0218635.0208226-.0362322.3336112-3.3959586-.5587831-6.34584437-2.3656338-8.96090391-.0044169-.00873653-.0119662-.01498957-.0208-.01873697-1.0197859-.46041935-2.1133521-.79963604-3.2567436-.99391953zm-4.94125056 5.01083671c.80723376 0 1.45052386.718413 1.43790416 1.586766 0 .8746061-.6369802 1.586766-1.43790416 1.586766-.78834928 0-1.43792673-.7121599-1.43792673-1.586766s.63698027-1.586766 1.43792673-1.586766zm5.31648436 0c.8072563 0 1.4505239.718413 1.4379267 1.586766 0 .8746061-.6306704 1.586766-1.4379267 1.586766-.7883267 0-1.4379042-.7121599-1.4379042-1.586766s.6369578-1.586766 1.4379042-1.586766z" fill="#150500" fill-rule="evenodd"/></svg>