<svg height="24" viewBox="0 0 24 24" width="24" xmlns="http://www.w3.org/2000/svg"><path d="m12.0083516 0c-6.62219602 0-11.99207664 5.36859575-11.99207664 11.9920767 0 5.2983564 3.43615825 9.793672 8.20086729 11.3791959.59917554.1109267.8193158-.2603994.8193158-.5769046 0-.2856684-.0111355-1.2304727-.01627496-2.2326677-3.33636704.7255206-4.04004497-1.415065-4.04004497-1.415065-.54563949-1.3859415-1.3315488-1.7546978-1.3315488-1.7546978-1.08828095-.7443654.0818031-.728947.0818031-.728947 1.20391884.0843728 1.83821404 1.2360405 1.83821404 1.2360405 1.06943626 1.8330746 2.80528936 1.3032818 3.48969431.9966272.1075004-.7747738.41843781-1.3041383.76149686-1.6035119-2.66352588-.3032283-5.46367578-1.3315488-5.46367578-5.9266556 0-1.3092778.46854756-2.37914239 1.23561218-3.21901605-.12463194-.30194336-.53493227-1.52170887.11606617-3.17361743 0 0 1.00690615-.32207292 3.29867766 1.22961615.95679641-.26596713 1.98254724-.39916484 3.00144544-.40387601 1.0193266.00471117 2.045934.13790888 3.0040152.40387601 2.2887735-1.55168907 3.2943948-1.22961615 3.2943948-1.22961615.6527116 1.65190856.2424113 2.87167407.1177793 3.17361743.7687778.83987366 1.2343274 1.90973825 1.2343274 3.21901605 0 4.6062423-2.8052894 5.620001-5.4756679 5.9168049.4300016.3721827.8133198 1.1019862.8133198 2.2206757 0 1.6043685-.0137053 2.8960865-.0137053 3.2909684 0 .3190749.2158574.6929707.8235987.5751914 4.7625676-1.5876653 8.1940147-6.0812677 8.1940147-11.377911.0004283-6.62262435-5.3685957-11.9912201-11.9916484-11.9912201z" fill="#150500" fill-rule="evenodd"/></svg>