<svg height="24" viewBox="0 0 24 24" width="24" xmlns="http://www.w3.org/2000/svg"><path d="m12 0c6.627417 0 12 5.372583 12 12s-5.372583 12-12 12-12-5.372583-12-12 5.372583-12 12-12zm-3.92326649 7c-2.80387149 0-5.07673351 2.23776883-5.07673351 5 0 2.7622312 2.27286202 5 5.07641208 5 2.72977242 0 4.95672502-2.1224355 5.07204262-4.7831205l.0046909-.2168795-.0046909-.2168795c-.1153176-2.66068499-2.3422702-4.7831205-5.07204262-4.7831205zm8.10753759.29335933c-1.401775 0-2.5383667 2.10791095-2.5383667 4.70664067 0 2.5987297 1.1365917 4.7066407 2.5383667 4.7066407 1.3579696 0 2.4670709-1.9776349 2.5350635-4.4644418l.0033033-.2421989-.0033033-.2421436c-.0679926-2.48627205-1.1770939-4.46449707-2.5350635-4.46449707zm3.9234273.48956106c-.4930803 0-.8929446 1.88875613-.8929446 4.21707961 0 2.3283235.3998643 4.2170796.8926231 4.2170796s.8926231-1.8878128.8926231-4.2170796c0-2.32926676-.3995428-4.21707961-.8926231-4.21707961z" fill="#150500" fill-rule="evenodd"/></svg>