<svg height="24" viewBox="0 0 24 24" width="24" xmlns="http://www.w3.org/2000/svg"><path d="m12 0c6.627417 0 12 5.372583 12 12s-5.372583 12-12 12-12-5.372583-12-12 5.372583-12 12-12zm3.3858105 6c-1.6990482 0-3.0771978 1.3565355-3.0771978 3.03025509 0 .23676752.0278576.46694351.0792871.68920968-2.55861713-.12682091-4.82526475-1.33306967-6.34323829-3.16551315-.26437972.4487509-.41625743.96895392-.41625743 1.52290554 0 1.05095248.54375971 1.97877534 1.36877444 2.52165314-.50465187-.016347-.97903534-.1521323-1.39395346-.3791444v.0390218c0 1.4675368 1.0601975 2.6922418 2.46888337 2.9704041-.25902248.0688155-.53036661.1054643-.81055019.1054643-.19821782 0-.391882-.0181926-.57938534-.0532595.39188199 1.2030849 1.52815228 2.0794938 2.87496205 2.1029596-1.05376882.8128667-2.38102466 1.2972118-3.82238969 1.2972118-.248308 0-.49340166-.0142377-.73474526-.0421857 1.36234576.8603256 2.9794282 1.3610177 4.71678066 1.3610177 5.66152964 0 8.75667424-4.6156483 8.75667424-8.61854855 0-.12998484-.0032144-.26128798-.0093752-.39153648.6010822-.42792169 1.1231451-.96051678 1.534581-1.56720058l.0013393-.00184563c-.5515277.24045877-1.1443061.40287391-1.7670851.47643531.6356363-.37466219 1.123145-.96895393 1.3529706-1.67635621-.5946535.34724145-1.253326.59956496-1.9540528.73482302-.5614386-.58796388-1.3610064-.95577088-2.2460222-.95577088z" fill="#150500" fill-rule="evenodd"/></svg>