<svg height="24" viewBox="0 0 148.843636 24" width="148.843636" xmlns="http://www.w3.org/2000/svg"><path d="m130.56 6.41454545c2.836364 0 4.581818 1.61454546 4.581818 5.97818185v1.1781818c0 4.7127273-2.269091 6.1963636-5.541818 6.1527273-.785455 0-1.876364-.0872728-2.530909-.2618182v4.5381818h-2.967273v-17.28h2.749091v.82909091c1.134546-.78545455 2.487273-1.13454546 3.709091-1.13454546zm-119.56-6.41454545c6.0751322 0 11 4.92486775 11 11 0 6.0751322-4.9248678 11-11 11-6.07513225 0-11-4.9248678-11-11 0-6.07513225 4.92486775-11 11-11zm132.127273 6.45818182c4.232727 0 5.716363 2.74909091 5.716363 6.58909088v1.0036364h-8.465454l.000661.372919c.016073 1.7861719.347218 2.8998083 3.359339 2.8998083 1.352727 0 2.923636-.1309091 4.581818-.3054546v2.2254546c-.96.2181818-2.618182.5236363-4.712727.5236363-4.581818 0-6.196364-1.7454545-6.196364-6.1963636v-.7854546c0-4.27636359 1.92-6.32727268 5.716364-6.32727268zm-27.272728 0c4.058182 0 5.105455 1.39636363 5.105455 4.62545458v8.3345454h-2.705455v-.8290909c-.785454.5672727-2.225454 1.1781818-4.014545 1.1781818-2.356364 0-3.709091-1.1781818-3.709091-3.6218182v-.48c0-3.4036363 2.443636-3.84 5.978182-3.84h1.44v-.7854545c0-1.78909091-.349091-2.13818182-2.618182-2.13818182-1.265454 0-2.574545.08727273-3.970909.26181818v-2.00727272c.567273-.21818182 2.443636-.69818182 4.494545-.69818182zm-60.2181814 0c3.7090909 0 5.7163637 1.87636363 5.7163637 5.84727268v1.5709091c0 4.0145455-2.0072728 5.8909091-5.7163637 5.8909091s-5.7163636-1.8763636-5.7163636-5.8909091v-1.5709091c0-3.97090905 2.0072727-5.84727268 5.7163636-5.84727268zm-22.4727272-4.49454546v5.10545455c.9163636-.43636364 2.0072727-.61090909 2.9672727-.61090909 3.4909091 0 5.1054545 1.78909091 5.1054545 5.62909088v1.7454546c0 4.2327272-2.0509091 5.9345454-5.9781818 5.9345454-1.6581818 0-2.7927273-.0872727-5.0618182-.3490909v-17.45454544zm71.5199996 4.45090909c1.963637 0 3.36.30545455 3.927273.48v2.26909091c-1.614545-.13090909-2.705454-.21818181-3.403636-.21818181-1.832728 0-2.88.56727272-2.88 3.31636365v1.6145454c0 2.7490909 1.047272 3.36 2.88 3.36.698182 0 1.789091-.0872727 3.403636-.2181818v2.2690909c-.610909.1745455-2.007273.48-3.927273.4363637-3.621818 0-5.323636-2.0509091-5.323636-5.8472728v-1.6145454c0-3.88363638 1.701818-5.84727275 5.323636-5.84727275zm-35.6945451 0c1.9636364 0 3.36.30545455 3.9272727.48v2.26909091c-1.6145454-.13090909-2.7054545-.21818181-3.4036363-.21818181-1.8327273 0-2.88.56727272-2.88 3.31636365v1.6145454c0 2.7490909 1.0472727 3.36 2.88 3.36.6981818 0 1.7890909-.0872727 3.4036363-.2181818v2.2690909c-.6109091.1745455-2.0072727.48-3.9272727.4363637-3.6218182 0-5.3236364-2.0509091-5.3236364-5.8472728v-1.6145454c0-3.88363638 1.7018182-5.84727275 5.3236364-5.84727275zm23.7818182.04363637c1.44 0 3.36.26181818 3.9709091.48v2.05090909c-1.44-.13090909-2.8363637-.21818182-3.9272727-.21818182-1.5272728 0-2.1818182.13090909-2.1818182 1.04727273 0 .82909088.4363636 1.04727268 2.0072727 1.65818178l1.0036364.3927273c2.7490909 1.0909091 3.6654545 1.9636364 3.7090909 4.0581818 0 2.4-1.6145455 3.84-5.1490909 3.7527273-1.7454546 0-3.7527273-.3054545-4.32-.48v-2.0945455c.6545454.0436364 2.5745454.3054546 4.1890909.3054546 1.8763636 0 2.3563636-.3927273 2.3563636-1.3090909 0-.8727273-.3927273-1.0909091-2.2690909-1.8327273l-.96-.3927273c-2.4-.9163636-3.4909091-2.0072727-3.4909091-3.97090905 0-2.5309091 1.7018182-3.44727273 5.0618182-3.44727273zm-14.3563636-4.53818182v10.4727273l4.4945454-5.62909094h3.36l-4.8872727 6.06545454 5.0181818 6.5890909-3.4909091.0436364-4.4945454-6.0218182v5.9345455h-2.9672728v-17.4545455zm-62.3127273 11.5636364-5.1927273 3.0109091-5.19272726-3.0109091-1.13454546.6545454v1.6145455l6.32727272 3.6654545v-1.6145454l6.3272727-3.6654546zm30.9818182-11.52000004v17.45454544h-2.9672728v-17.45454544zm70.9963636 11.73818184h-1.570909c-2.181818 0-3.098182.2618182-3.098182 1.92v.5236363c0 1.1781819.741818 1.4836364 1.789091 1.4836364 1.178182 0 2.443636-.5236364 2.88-.7854545zm11.694545-4.66909093c-.82909 0-1.527272.13090909-2.74909.65454546v7.33090907c.872727.1745455 1.658181.2618182 2.356363.2618182 1.789091 0 2.836364-.6109091 2.836364-3.7090909v-1.1345455c0-2.61818178-.785455-3.40363633-2.443637-3.40363633zm-74.094545-.04363636c-1.8763636 0-2.7490909.87272727-2.7490909 3.31636359v1.5709091c0 2.4436364.8290909 3.36 2.7490909 3.36s2.7490909-.9163636 2.7490909-3.36v-1.5709091c0-2.39999995-.8290909-3.31636359-2.7490909-3.31636359zm-19.9418182-.04363636c-.5672727 0-1.8327273.08727272-2.6181818.48v7.72363635c.48 0 1.2654545.0872727 2.1818182.0872727 2.0509091 0 2.9672727-.7418181 2.9672727-3.4036363v-1.7890909c0-2.31272731-.6545454-3.09818185-2.5309091-3.09818185zm-19.6363636.52363636-5.1927273 3.01090909-5.19272726-3.01090909-1.09090909.65454549-.04363637 1.5709091 6.32727272 3.6654545v-1.6145455l6.3272727-3.6218181zm127.0254548-.65454546c-2.4 0-2.749091 1.61454545-2.749091 3.05454545v.2181818h5.498182v-.2181818c0-1.44-.305455-3.05454545-2.749091-3.05454545zm-132.2181821-6.41454545-6.28363635 3.66545455-.04363637 1.61454545 6.32727272 3.6654545v-1.61454541l6.3272727-3.66545454z" fill="#150500" fill-rule="evenodd"/></svg>