<svg height="48" viewBox="0 0 399 48" width="399" xmlns="http://www.w3.org/2000/svg"><g fill="none" fill-rule="evenodd"><path d="m73.1095968 43.0160539v-9.2669084h-1.1095968v9.2669084zm8.7609903 0v-9.2669084h-1.0613534v6.025479c0 .5717245.014473 1.2975661.057892 2.0333506h-.0241217c-.217095-.4971517-.506555-1.1335059-.7236501-1.585914l-3.135817-6.4729156h-1.5968545v9.2669084h1.0420561v-6.283998c0-.6462972-.0241217-1.3224236-.057892-1.9339202h.0241217c.231568.5468669.506555 1.1086483.7236501 1.5709995l3.1695873 6.6469187zm8.2689083-8.2427758v-1.0241326h-6.6575808v1.0241326h2.7691677v8.2427758h1.1144211v-8.2427758zm6.9325678 8.2427758v-1.0092181h-4.2116435v-3.2812014h3.9559538v-1.0340756h-3.9559538v-2.9182807h4.2116435v-1.0241326h-5.3260646v9.2669084zm8.3509218 0-2.248139-3.852926c1.042056-.3728638 1.683692-1.0987053 1.683692-2.5802175 0-2.3813568-1.669219-2.8287934-3.753332-2.8287934h-2.1178823v9.2669084h1.1095973v-3.6043501h1.042056c.265338 0 .603041 0 .849082-.009943l2.117883 3.6142931h1.317043zm-1.698165-6.4331435c0 1.4616261-.83461 1.8195754-2.590668 1.8195754h-1.042056v-3.6292077h1.003462c1.746409 0 2.629262.2634904 2.629262 1.8096323zm9.585951 2.4708441v-1.3224236c0-2.6448472-1.235029-4.1263594-3.47352-4.1263594s-3.473521 1.4864837-3.473521 4.1263594v1.3224236c0 2.6448473 1.23503 4.141274 3.473521 4.141274 2.238491-.0049715 3.47352-1.5013983 3.47352-4.141274zm-1.12407 0c0 2.2719835-.969691 3.1171414-2.34945 3.1171414-1.37976 0-2.349451-.8501295-2.349451-3.1171414v-1.3224236c0-2.2719834.969691-3.1071983 2.349451-3.1071983 1.379759 0 2.34945.8352149 2.34945 3.1071983zm8.905721-2.4111859c-.014473-2.7691351-1.886315-2.9033661-4.148928-2.9033661-.554798 0-1.138542.0149145-1.717462.0149145v9.2669084h1.109596v-3.6043501c2.590668-.0049715 4.756794-.0149146 4.756794-2.7741067zm-1.128895 0c0 1.710202-1.099948 1.7599172-3.266074 1.7599172h-.361825v-3.6292077h.593393c2.006923 0 3.024858.0497152 3.034506 1.8692905zm8.124179 6.3734853v-1.0092181h-4.211644v-3.2812014h3.955954v-1.0340756h-3.955954v-2.9182807h4.211644v-1.0241326h-5.326065v9.2669084zm8.346097 0-2.248139-3.852926c1.042056-.3728638 1.683692-1.0987053 1.683692-2.5802175 0-2.3813568-1.669219-2.8287934-3.753331-2.8287934h-2.117883v9.2669084h1.114421v-3.6043501h1.042056c.265339 0 .603042 0 .849083-.009943l2.117883 3.6142931zm-1.693341-6.4331435c0 1.4566546-.83461 1.8195754-2.590667 1.8195754h-1.042056v-3.6292077h1.003461c1.746409 0 2.629262.2634904 2.629262 1.8096323zm9.875412 6.4331435-2.942844-9.2669084h-1.538963l-2.942843 9.2669084h1.12407l.955218-3.0326256h3.21783l.931097 3.0326256zm-2.455586-4.0766443h-2.552073l.858731-2.7045054c.149555-.4971517.270163-1.009218.361826-1.5212843h.120608c.086838.5170378.207446 1.0241326.361825 1.5212843zm10.044263 1.4715692c0-1.0241326-.385947-1.8195754-1.2688-2.1675816.767069-.3430347 1.249502-1.133506 1.220556-1.9935785 0-2.1427239-1.428002-2.4957017-3.61825-2.4957017h-2.373572v9.2619369h2.310856c2.117882 0 3.72921-.3728638 3.72921-2.6050751zm-1.128894 0c0 1.3820818-.94557 1.595857-2.600316 1.595857h-1.196435v-3.306059h1.804301c1.572733 0 1.99245.6761264 1.99245 1.710202zm-.048244-4.1661316c0 .8749871-.385946 1.4715692-1.949031 1.4715692h-1.8043v-2.9431383h1.259151c1.587206 0 2.49418.0745728 2.49418 1.4715691zm8.312328 6.7712067v-1.0092181h-4.115157v-8.2527188h-1.114421v9.2619369zm6.874675 0v-1.0092181h-4.211643v-3.2812014h3.955954v-1.0340756h-3.955954v-2.9182807h4.211643v-1.0241326h-5.326064v9.2669084zm9.788574-.0348007v-.9346452c-.554799.0497151-1.41353.1143449-2.079288.1143449-1.693341 0-2.518302-.7258416-2.518302-3.0027965v-1.5361989c0-2.2819264.824961-2.9928534 2.518302-2.9928534.665758 0 1.524489.0745728 2.079288.1242879v-.9346452c-.685056-.124288-1.384584-.1988607-2.079288-.2137753-2.055166 0-3.632723.7606422-3.632723 4.016986v1.5361989c0 3.2563439 1.572732 4.0418436 3.632723 4.0418436.699528-.0248576 1.394232-.0944588 2.079288-.2187468zm7.950502-3.9274987v-1.3224236c0-2.6448472-1.235029-4.1263594-3.47352-4.1263594s-3.473521 1.4864837-3.473521 4.1263594v1.3224236c0 2.6448473 1.23503 4.141274 3.473521 4.141274 2.243315-.0049715 3.47352-1.5013983 3.47352-4.141274zm-1.12407 0c0 2.2719835-.969691 3.1171414-2.34945 3.1171414-1.37976 0-2.344627-.8501295-2.344627-3.1171414v-1.3224236c0-2.2719834.969692-3.1071983 2.349451-3.1071983 1.37976 0 2.349451.8352149 2.349451 3.1071983zm8.423287 1.6207147c0-1.297566-.603041-2.008493-1.862193-2.5802175l-1.548611-.6960124c-.955218-.4374936-1.210908-.835215-1.210908-1.5461419 0-.9595029.665758-1.2478509 1.852545-1.2478509.815312.009943 1.630624.0646297 2.445937.1640601v-.9147592c-.815313-.1690316-1.649922-.2485759-2.479708-.2485759-1.973152 0-2.942843.7258416-2.942843 2.2421543 0 1.2826515.651285 1.9587779 1.852544 2.5056448l1.538962.710927c.955218.4474365 1.220557.874987 1.220557 1.6107716 0 1.0837908-.617515 1.5212843-1.838071 1.5212843-.858732 0-1.712639-.0546867-2.566546-.1640601v.8998447c.844258.1740031 1.70299.2585189 2.566546.2634904 1.977976-.0049715 2.971789-.9147592 2.971789-2.5205593zm9.692087 2.3465562v-9.2669084h-1.452124l-1.886315 4.151217c-.183325.412636-.385947.8600725-.554798 1.2727085h-.024122c-.168852-.3977214-.352176-.8501295-.530677-1.2478509l-1.862193-4.1760746h-1.466597v9.2619369h1.099948v-6.0205076c0-.6860693-.024122-1.0837907-.048243-1.720145h.024121c.217095.4722942.43419.9495599.641637 1.421854l1.476246 3.3309166h1.365286l1.514841-3.3309166c.217095-.4722941.43419-.9097877.641637-1.421854h.024121c-.038594.6363543-.057892 1.0489902-.057892 1.720145v6.0254791zm8.857477-3.9672709v-1.3224236c0-2.6448472-1.235029-4.1263594-3.47352-4.1263594s-3.473521 1.4864837-3.473521 4.1263594v1.3224236c0 2.6448473 1.23503 4.141274 3.473521 4.141274 2.238491-.0049715 3.47352-1.5013983 3.47352-4.141274zm-1.12407 0c0 2.2719835-.969691 3.1171414-2.34945 3.1171414-1.37976 0-2.349451-.8501295-2.349451-3.1171414v-1.3224236c0-2.2719834.969691-3.1071983 2.349451-3.1071983 1.379759 0 2.34945.8352149 2.34945 3.1071983zm8.423287 1.6207147c0-1.297566-.603042-2.008493-1.862193-2.5802175l-1.548611-.6960124c-.955218-.4374936-1.210908-.835215-1.210908-1.5461419 0-.9595029.665758-1.2478509 1.852545-1.2478509.815312.009943 1.630624.0646297 2.445937.1640601v-.9147592c-.815313-.1690316-1.649922-.2485759-2.479708-.2485759-1.973152 0-2.942843.7258416-2.942843 2.2421543 0 1.2826515.651285 1.9587779 1.852544 2.5056448l1.538962.710927c.955218.4474365 1.220557.874987 1.220557 1.6107716 0 1.0837908-.617515 1.5212843-1.838071 1.5212843-.858732 0-1.712639-.0546867-2.566546-.1640601v.8998447c.844258.1740031 1.70299.2585189 2.566546.2634904 1.977976-.0049715 2.971789-.9147592 2.971789-2.5205593zm8.264084-6.9203522h-1.042056l-3.690615 9.2669084h1.051704zm9.219302 9.2619369v-1.0092181h-4.211643v-3.2812014h3.955954v-1.0340756h-3.955954v-2.9182807h4.211643v-1.0241326h-5.326064v9.2669084zm7.902259-8.2427758v-1.0241326h-6.657581v1.0241326h2.769168v8.2427758h1.114421v-8.2427758zm8.336449 8.2427758v-9.2669084h-1.114421v3.852926h-4.501104v-3.852926h-1.114421v9.2669084h1.114421v-4.3749353h4.501104v4.3749353zm7.598326 0v-1.0092181h-4.211644v-3.2812014h3.955954v-1.0340756h-3.955954v-2.9182807h4.211644v-1.0241326h-5.326065v9.2669084zm8.350922 0-2.24814-3.852926c1.042056-.3728638 1.683693-1.0987053 1.683693-2.5802175 0-2.3813568-1.66922-2.8287934-3.753332-2.8287934h-2.117883v9.2669084h1.114422v-3.6043501h1.042056c.265338 0 .603041 0 .849082-.009943l2.117883 3.6142931h1.312219zm-1.693341-6.4331435c0 1.4566546-.83461 1.8195754-2.590668 1.8195754h-1.042056v-3.6292077h1.003462c1.746409 0 2.629262.2634904 2.629262 1.8096323zm8.5053 6.4331435v-1.0092181h-4.211643v-3.2812014h3.955954v-1.0340756h-3.955954v-2.9182807h4.211643v-1.0241326h-5.326064v9.2669084zm8.375044-3.852926v-5.4139824h-1.099948v5.2896945c0 2.2322113-.521028 3.1171414-2.151653 3.1171414-1.645098 0-2.156477-.8749871-2.156477-3.1171414v-5.2896945h-1.114421v5.4139824c0 2.6796479 1.099948 4.0269291 3.266074 4.0269291 2.156477 0 3.256425-1.3472812 3.256425-4.0269291zm9.99602 3.852926v-9.2669084h-1.452125l-1.886314 4.151217c-.183325.4126359-.385947.8600725-.554799 1.2727084h-.024121c-.168852-.3977213-.352177-.8501294-.530677-1.2478508l-1.862193-4.1760746h-1.466597v9.2619368h1.099948v-6.015536c0-.6860693-.024122-1.0837907-.048244-1.720145h.024122c.217095.4722942.43419.9495599.641636 1.421854l1.476247 3.3309166h1.365286l1.514841-3.3309166c.217095-.4722941.43419-.9097877.641636-1.421854h.024122c-.038595.6363543-.057892 1.0489902-.057892 1.720145v6.0254791h1.095124zm10.792035-8.2427758v-1.0241326h-6.657581v1.0241326h2.769168v8.2427758h1.114421v-8.2427758zm7.670691 4.2755049v-1.3224236c0-2.6448472-1.23503-4.1263594-3.473521-4.1263594s-3.47352 1.4864837-3.47352 4.1263594v1.3224236c0 2.6448472 1.235029 4.141274 3.47352 4.141274s3.473521-1.4964268 3.473521-4.141274zm-1.12407 0c0 2.2719834-.969691 3.1171414-2.349451 3.1171414-1.379759 0-2.34945-.8501295-2.34945-3.1171414v-1.3224236c0-2.2719834.969691-3.1071983 2.34945-3.1071983 1.37976 0 2.349451.8352149 2.349451 3.1071983zm9.499113 3.9672709-4.05244-4.7129985 4.05244-4.5489384h-1.428003l-3.859467 4.3500777v-4.3500777h-1.114421v9.2669084h1.114421v-4.4644226l3.762981 4.4644226zm6.754068 0v-1.0092181h-4.211644v-3.2812014h3.955954v-1.0340756h-3.955954v-2.9182807h4.211644v-1.0241326h-5.326065v9.2669084zm8.394341 0v-9.2619369h-1.066178v6.0254791c0 .5717245.014473 1.297566.057892 2.0333506h-.024122c-.217095-.4971518-.506555-1.133506-.72365-1.5859141l-3.135817-6.4729156h-1.596855v9.2669084h1.042057v-6.283998c0-.6462972-.024122-1.3224236-.057892-1.9339202h.024121c.231568.5468669.506555 1.1086484.72365 1.5709995l3.169588 6.6469187zm10.796859-8.2427758v-1.0191611h-6.657581v1.0241326h2.769168v8.2427758h1.119245v-8.2427758zm8.046989 8.2427758-2.252964-3.852926c1.042056-.3728638 1.683692-1.0987053 1.683692-2.5802175 0-2.3813568-1.669219-2.8287934-3.753331-2.8287934h-2.117883v9.2669084h1.114421v-3.6043501h1.042056c.265339 0 .603042 0 .849083-.009943l2.117883 3.6142931zm-1.693342-6.4331435c0 1.4566546-.834609 1.8195754-2.590667 1.8195754h-1.042056v-3.6292077h1.003462c1.746408 0 2.629261.2634904 2.629261 1.8096323zm9.870588 6.4331435-2.942844-9.2669084h-1.534138l-2.942844 9.2669084h1.12407l.955218-3.0326256h3.217831l.931096 3.0326256zm-2.455586-4.0766443h-2.552073l.858731-2.7045054c.149555-.4971517.270163-1.009218.361826-1.5212843h.120608c.086838.5170378.207446 1.0241326.361825 1.5212843zm10.492926 4.0766443v-9.2619369h-1.066178v6.0254791c0 .5717245.014473 1.297566.057892 2.0333506h-.024122c-.217095-.4971518-.506555-1.133506-.728474-1.5859141l-3.135817-6.4729156h-1.596855v9.2669084h1.042057v-6.283998c0-.6462972-.024122-1.3224236-.057892-1.9339202h.024121c.231568.5468669.506555 1.1086484.72365 1.5709995l3.169588 6.6469187zm7.661042-2.3465562c0-1.2975661-.603042-2.008493-1.862193-2.5802175l-1.548611-.6960125c-.955218-.4374935-1.210908-.8352149-1.210908-1.5461419 0-.9595028.665758-1.2478508 1.852544-1.2478508.815313.009943 1.630625.0646297 2.445938.1640601v-.9097877c-.815313-.1690316-1.649922-.2485759-2.479708-.2485759-1.973152 0-2.942844.7258416-2.942844 2.2421543 0 1.2826515.651285 1.9587779 1.852545 2.5056448l1.538962.710927c.955218.4474365 1.220557.874987 1.220557 1.6107716 0 1.0837908-.617515 1.5212843-1.838072 1.5212843-.858731 0-1.712638-.0546867-2.566545-.1640601v.8998447c.844258.1740031 1.70299.2585189 2.566545.2634904 1.977977-.0049715 2.97179-.9147592 2.97179-2.5255308zm7.236501-5.8962196v-1.0191611h-5.326065v9.2669084h1.114421v-4.2904195h3.955954v-1.0340756h-3.955954v-2.9182807zm7.115892 8.2427758v-1.0092181h-4.211643v-3.2812014h3.955954v-1.0340756h-3.955954v-2.9182807h4.211643v-1.0241326h-5.326064v9.2669084zm8.346098 0-2.24814-3.852926c1.042057-.3728638 1.683693-1.0987053 1.683693-2.5802175 0-2.3813568-1.66922-2.8287934-3.753332-2.8287934h-2.117882v9.2669084h1.114421v-3.6043501h1.042056c.265338 0 .603042 0 .849083-.009943l2.117882 3.6142931zm-1.693341-6.4331435c0 1.4566546-.83461 1.8195754-2.590667 1.8195754h-1.042057v-3.6292077h1.003462c1.746409 0 2.629262.2634904 2.629262 1.8096323z" fill="#848382"/><g fill="#150500"><path d="m84.2332746 24.3338518v-10.2353045h-4.4172813v7.0453999c-.6124396.049303-1.3984842.049303-2.160417.049303-2.6185412 0-3.8385982-1.064945-3.8385982-5.1965371v-2.2876595c0-4.52108588 1.6781811-5.14230378 4.6246428-5.14230378 1.5238656 0 4.3979918.15776962 5.7193183.23172413v-3.29837124c-2.1748841-.45851797-4.3883471-.69517241-6.6066325-.70010271-4.118295 0-8.4343067 1.16848129-8.4343067 8.9090536v2.2876595c0 7.3510785 3.8385982 8.9632869 8.3330372 8.9632869 2.2713313-.0049303 4.5378403-.2169332 6.7802374-.6261482zm19.8440094.1824211-4.2147423-7.7948055c1.8807203-.9367572 2.9995073-2.4700808 2.9995073-5.3247249v-.1824212c0-5.30007332-4.0170251-6.23683047-8.7670492-6.23683047-2.3388444 0-4.2195646.12818782-6.1002848.23172414v19.30212763h4.5764192v-6.8826999h2.8451921l3.8627099 6.8826999h4.7982478zm-5.8157656-13.0406456c0 2.1052384-1.1428992 2.7806896-3.9639795 2.7806896h-1.7264047v-5.61068227c.6076173-.0246515 1.0657414-.0246515 1.6781811-.0246515 2.7969685 0 4.0170254.49303008 4.0170254 2.67715337zm24.9557106 13.0406456-5.309418-19.30212763h-7.368565l-5.261195 19.30212763h4.880228l1.374373-4.8563463h5.362463l1.345439 4.8563463zm-6.963487-8.3371386h-4.065249l1.345438-5.1176523c.250763-.9761995.443657-1.9622597.583505-2.96311076h.178428c.154315.98606016.356854 2.02635366.583505 2.96311076zm23.759765-10.96498903h-4.80307l-3.279205 12.93710933c-.255585 1.0895965-.482236 2.4404989-.684775 3.5054439h-.053046c-.178427-1.0402935-.405078-2.4158474-.660663-3.5054439l-3.279204-12.93710933h-4.851294l5.184036 19.30212763h7.219073zm7.672374 19.30212763v-19.30212763h-4.750024v19.30212763zm18.575728-15.76710195v-3.53502568h-15.701602v3.53502568h5.463733v15.77203225h4.778959v-15.77203225zm18.599841-3.53502568h-4.725912l-2.541384 5.11765223c-.472591.9614087-.887314 1.9523991-1.244168 2.9631108h-.125382c-.32792-.9614087-.786044-2.080587-1.195945-2.9631108l-2.541383-5.11765223h-4.851294l6.302824 12.34054293v6.9615847h4.624643v-6.9615847zm23.07499 13.63721203v-.2859574c.08198-1.6763023-.834268-3.2342774-2.314732-3.949171 1.43224-.7691269 2.295443-2.3221717 2.20864-3.9738224v-.2317242c0-4.4175495-3.226158-5.42826117-8.791161-5.42826117-2.035036 0-3.380474.04930301-6.124397.23172414v19.30212763c2.59443.1824212 3.939868.2317424 6.071351.2317424 5.290128.0049121 8.950299-.9860784 8.950299-5.896658zm-4.600531-.0246515c0 2.0510051-1.273103 2.4404989-3.963979 2.4404989-.713709 0-1.195945 0-1.88072-.0246515v-5.1176522h2.642653c2.517271 0 3.202046.8578723 3.202046 2.4158473zm-.053046-8.0265297c0 1.508672-.583505 2.3369626-3.177935 2.3369626h-2.618541v-4.6492737c.737821-.0246515 1.220057-.0246515 1.928944-.0246515 2.541383 0 3.86271.23172414 3.86271 2.1298899zm24.140732 13.7160968-4.219565-7.7948055c1.880721-.9367572 2.999508-2.4700808 2.999508-5.3247249v-.1824212c0-5.30007332-4.017026-6.23683047-8.76705-6.23683047-2.338844 0-4.219564.12818782-6.100284.23172414v19.30212763h4.571596v-6.8826999h2.845193l3.862709 6.8826999h4.807893zm-5.815766-13.0406456c0 2.1052384-1.142899 2.7806896-3.963979 2.7806896h-1.726405v-5.61068227c.61244-.0246515 1.065742-.0246515 1.678181-.0246515 2.796969 0 4.017026.49303008 4.017026 2.67715337zm13.087884 13.0406456v-19.30212763h-4.750024v19.30212763zm19.718628-8.7019809v-2.0017021c0-6.07906092-2.796969-8.83509907-9.148016-8.83509907-2.594429 0-4.089361.04930301-6.505363.23172414v19.30212763c2.440114.1824212 4.041137.2317505 6.505363.2317505 6.481251.0098343 9.148016-2.7462039 9.148016-8.9288011zm-4.677689 0c0 4.1069406-1.244169 5.3000734-4.422103 5.3000734h-1.928944v-12.46873077h1.928944c3.177934 0 4.422103 1.06494497 4.422103 5.17188557zm22.640978 8.5195598v-10.2353045h-4.422104v7.0453999c-.612439.049303-1.398484.049303-2.160417.049303-2.618541 0-3.838598-1.064945-3.838598-5.1965371v-2.2876595c0-4.52108588 1.678181-5.14230378 4.624643-5.14230378 1.523865 0 4.397992.15776962 5.719318.23172413v-3.29837124c-2.174884-.45851797-4.388347-.69517241-6.606632-.70010271-4.118295 0-8.434307 1.16848129-8.434307 8.9090536v2.2876595c0 7.3510785 3.838598 8.9632869 8.333037 8.9632869 2.276154-.0049303 4.547485-.2120029 6.78506-.6261482zm16.617851.1824211v-3.5054438h-8.101564v-4.703507h7.571104v-3.3476743h-7.571104v-4.21047685h8.106386v-3.53502568h-12.85641v19.30212763zm23.865857-12.9864123v-.2613059c0-5.32472491-3.96398-6.28613357-8.868319-6.28613357-2.160417 0-3.96398.07888481-6.047239.23172414v19.30212763h4.571597v-6.6263243c.737821.0246515 1.297214.0246515 1.928944.0246515 4.451037.0049303 8.415017-.9811298 8.415017-6.3847395zm-4.600531 0c0 2.2087748-1.297215 2.7264563-3.939868 2.7264563h-1.803562v-5.61068227c.535282 0 1.195945-.0246515 1.803562-.0246515 2.618541 0 3.910934.41414526 3.939868 2.65250187zm23.427028 4.3386647v-1.9721203c0-6.70520911-3.356368-9.0914747-8.231773-9.0914747-4.856116 0-8.207656 2.39119589-8.207656 9.0914747v1.9721203c0 6.6756273 3.327428 9.0914747 8.207656 9.0914747 4.904339 0 8.23659-2.4158474 8.231773-9.0914747zm-4.677694-.0295818c0 4.1069406-1.321327 5.3493764-3.558902 5.3493764-2.20864 0-3.534789-1.2473661-3.534789-5.3493764v-1.9474688c0-4.02805577 1.297215-5.32472488 3.534789-5.32472488 2.285799 0 3.558902 1.29666911 3.558902 5.32472488zm24.217889 8.6773294-4.219565-7.7948055c1.880721-.9367572 2.999508-2.4700808 2.999508-5.3247249v-.1824212c0-5.30007332-4.017025-6.23683047-8.76705-6.23683047-2.338844 0-4.219564.12818782-6.100284.23172414v19.30212763h4.576419v-6.8826999h2.845192l3.86271 6.8826999zm-5.815766-13.0406456c0 2.1052384-1.142899 2.7806896-3.963979 2.7806896h-1.726405v-5.61068227c.61244-.0246515 1.065742-.0246515 1.678181-.0246515 2.796969 0 4.017026.49303008 4.017026 2.67715337zm21.825999-2.72645635v-3.53502568h-15.706424v3.53502568h5.463733v15.77203225h4.778958v-15.77203225zm17.206179 15.76710195-5.309418-19.30212763h-7.368565l-5.261194 19.30212763h4.880228l1.36955-4.8563463h5.362463l1.345439 4.8563463zm-6.963487-8.3371386h-4.065249l1.345438-5.1176523c.250763-.9761995.443657-1.9622597.583506-2.96311076h.178427c.154316.98606016.356855 2.02635366.583506 2.96311076zm21.879045 8.3371386v-3.638562h-7.392677v-15.66849593h-4.778958v19.30212763z"/><path d="m10.0948219 37.6716178-.0577673-4.5234845h.0577673l3.0953602-1.8354075 14.7787807 8.5026094 14.5428978-8.4929747 3.2157087 1.8257728-17.8163737 10.3283822h.0577672v4.5234845zm-10.0948219-16.8944199.00962787-4.5234845 3.15312747-1.8354075 24.80620746 13.9751104 23.5979097-13.0260939 3.1531275 1.8257727-26.7510372 14.8566841v4.5234845zm10.0996358-5.9253312v-4.5234845l17.869327-10.3283822 17.7586065 10.3283822-17.7586065 10.3283822v4.5283018zm11.3320032-4.0706543c0 3.5262946 2.8546635 5.5206744 6.3784639 5.5206744h.004814c3.5238004 0 6.3784639-1.9895624 6.3784639-5.5206744 0-3.5262947-2.8594774-6.3877961-6.3832779-6.3877961-3.5238004 0-6.3784639 2.8615014-6.3784639 6.3877961z"/></g></g></svg>