<?xml version="1.0" encoding="UTF-8"?><svg width="331px" height="48px" viewBox="0 0 331 48" version="1.1" xmlns="http://www.w3.org/2000/svg" xmlns:xlink="http://www.w3.org/1999/xlink"><g id="basics/logo/mobile-text" stroke="none" stroke-width="1" fill="none" fill-rule="evenodd"><path d="M80.9946624,31.503057 L80.9946624,23.3797995 L77.4888836,23.3797995 L77.4888836,28.9713866 C77.0028204,29.010516 76.3789755,29.010516 75.7742669,29.010516 C73.6960596,29.010516 72.7277604,28.1653216 72.7277604,24.8862803 L72.7277604,23.0706774 C72.7277604,19.4825141 74.0596502,18.989484 76.3981118,18.989484 C77.607529,18.989484 79.8885815,19.114698 80.9372534,19.173392 L80.9372534,16.5556371 C79.2111548,16.1917339 77.4544382,16.0039129 75.6938942,16 C72.4254061,16 69,16.9273661 69,23.0706774 L69,24.8862803 C69,30.7204696 72.0465065,32 75.6135216,32 C77.4161655,31.9960871 79.2149821,31.8278308 80.9946624,31.503057 Z M96.7438761,31.6478357 L93.3988426,25.461482 C94.8914777,24.718024 95.7794042,23.5011005 95.7794042,21.2355099 L95.7794042,21.0907312 C95.7794042,16.8843238 92.5912888,16.1408657 88.8214284,16.1408657 C86.9652027,16.1408657 85.4725676,16.2426021 83.9799326,16.3247738 L83.9799326,31.6439227 L87.6120113,31.6439227 L87.6120113,26.1814625 L89.8701002,26.1814625 L92.935743,31.6439227 L96.7438761,31.6439227 L96.7438761,31.6478357 Z M92.1281892,21.2981169 C92.1281892,22.9689411 91.2211263,23.5050135 88.9821737,23.5050135 L87.6120113,23.5050135 L87.6120113,19.052091 C88.0942472,19.0325263 88.4578378,19.0325263 88.943901,19.0325263 C91.1637173,19.0325263 92.1320165,19.42382 92.1320165,21.1572512 L92.1281892,21.2981169 Z M111.934309,31.6478357 L107.720485,16.3286867 L101.872417,16.3286867 L97.6968662,31.6478357 L101.570063,31.6478357 L102.660835,27.7935926 L106.916758,27.7935926 L107.984566,31.6478357 L111.934309,31.6478357 Z M106.407731,25.0310589 L103.181343,25.0310589 L104.249151,20.9694302 C104.448169,20.1946686 104.60126,19.4120812 104.712251,18.617755 L104.85386,18.617755 C104.976333,19.4003424 105.137078,20.2259721 105.31696,20.9694302 L106.407731,25.0310589 Z M125.264688,16.3286867 L121.452728,16.3286867 L118.850184,26.5962338 C118.647339,27.4609929 118.467457,28.5331377 118.306712,29.3783321 L118.264612,29.3783321 C118.123003,28.5527024 117.943122,27.4609929 117.740276,26.5962338 L115.137733,16.3286867 L111.2875,16.3286867 L115.401815,31.6478357 L121.131237,31.6478357 L125.264688,16.3286867 Z M131.353874,31.6478357 L131.353874,16.3286867 L127.584013,16.3286867 L127.584013,31.6478357 L131.353874,31.6478357 Z M146.096515,19.1342627 L146.096515,16.3286867 L133.634926,16.3286867 L133.634926,19.1342627 L137.971222,19.1342627 L137.971222,31.6517486 L141.764046,31.6517486 L141.764046,19.1342627 L146.096515,19.1342627 Z M160.858294,16.3286867 L157.10757,16.3286867 L155.090599,20.3903155 C154.715526,21.1533382 154.386381,21.9398386 154.103163,22.7419907 L154.003654,22.7419907 C153.7434,21.978968 153.379809,21.0907312 153.054491,20.3903155 L151.03752,16.3286867 L147.187287,16.3286867 L152.189528,26.1227684 L152.189528,31.6478357 L155.85988,31.6478357 L155.85988,26.1227684 L160.858294,16.3286867 Z M179.171778,27.1518709 L179.171778,26.9249205 C179.236842,25.5945219 178.50966,24.3580337 177.334689,23.7906579 C178.471388,23.1802397 179.156469,21.9476645 179.087578,20.6368305 L179.087578,20.4529225 C179.087578,16.9469308 176.527135,16.1447787 172.110466,16.1447787 C170.495358,16.1447787 169.42755,16.183908 167.249834,16.3286867 L167.249834,31.6478357 C169.308905,31.7926143 170.376713,31.8317582 172.068366,31.8317582 C176.26688,31.8356566 179.171778,31.0491563 179.171778,27.1518709 L179.171778,27.1518709 Z M175.520563,27.1323062 C175.520563,28.760088 174.510164,29.0692101 172.374547,29.0692101 C171.808112,29.0692101 171.425385,29.0692101 170.881912,29.0496454 L170.881912,24.9880166 L172.979256,24.9880166 C174.977091,24.9880166 175.520563,25.6688677 175.520563,26.9053558 L175.520563,27.1323062 Z M175.478463,20.7620445 C175.478463,21.9594033 175.015363,22.6167767 172.956292,22.6167767 L170.878085,22.6167767 L170.878085,18.926877 C171.463657,18.9073123 171.846384,18.9073123 172.408993,18.9073123 C174.425964,18.9073123 175.474636,19.0912203 175.474636,20.5977011 L175.478463,20.7620445 Z M194.637774,31.6478357 L191.288913,25.461482 C192.781548,24.718024 193.669475,23.5011005 193.669475,21.2355099 L193.669475,21.0907312 C193.669475,16.8843238 190.481359,16.1408657 186.711499,16.1408657 C184.855273,16.1408657 183.362638,16.2426021 181.870003,16.3247738 L181.870003,31.6439227 L185.498254,31.6439227 L185.498254,26.1814625 L187.756343,26.1814625 L190.821986,31.6439227 L194.637774,31.6439227 L194.637774,31.6478357 Z M190.022087,21.2981169 C190.022087,22.9689411 189.115024,23.5050135 186.876071,23.5050135 L185.505909,23.5050135 L185.505909,19.052091 C185.991972,19.0325263 186.351735,19.0325263 186.837799,19.0325263 C189.057615,19.0325263 190.025914,19.42382 190.025914,21.1572512 L190.022087,21.2981169 Z M200.409296,31.6478357 L200.409296,16.3286867 L196.639436,16.3286867 L196.639436,31.6478357 L200.409296,31.6478357 Z M216.059001,24.7415016 L216.059001,23.1528491 C216.059001,18.3281976 213.839184,16.1408657 208.798671,16.1408657 C206.7396,16.1408657 205.553146,16.1799951 203.635684,16.3247738 L203.635684,31.6439227 C205.572282,31.7887014 206.842936,31.8278517 208.798671,31.8278517 C213.942521,31.8356566 216.059001,29.6483248 216.059001,24.7415016 Z M212.346549,24.7415016 C212.346549,28.0009782 211.359114,28.947909 208.836943,28.947909 L207.306036,28.947909 L207.306036,19.052091 L208.836943,19.052091 C211.359114,19.052091 212.346549,19.8972854 212.346549,23.156762 L212.346549,24.7415016 Z M230.315579,31.503057 L230.315579,23.3797995 L226.805973,23.3797995 L226.805973,28.9713866 C226.31991,29.010516 225.696065,29.010516 225.091357,29.010516 C223.013149,29.010516 222.04485,28.1653216 222.04485,24.8862803 L222.04485,23.0706774 C222.04485,19.4825141 223.37674,18.989484 225.715202,18.989484 C226.924619,18.989484 229.205671,19.114698 230.254343,19.173392 L230.254343,16.5556371 C228.528245,16.1917339 226.771528,16.0039129 225.010984,16 C221.742496,16 218.31709,16.9273661 218.31709,23.0706774 L218.31709,24.8862803 C218.31709,30.7204696 221.363596,32 224.930611,32 C226.737082,31.9960871 228.539726,31.8317437 230.315579,31.503057 L230.315579,31.503057 Z M243.50435,31.6478357 L243.50435,28.8657373 L237.074537,28.8657373 L237.074537,25.1327953 L243.08335,25.1327953 L243.08335,22.475911 L237.074537,22.475911 L237.074537,19.1342627 L243.508177,19.1342627 L243.508177,16.3286867 L233.304677,16.3286867 L233.304677,31.6478357 L243.50435,31.6478357 L243.50435,31.6478357 Z M262.445506,21.3411592 L262.445506,21.1337735 C262.445506,16.9078014 259.299491,16.1447787 255.407158,16.1447787 C253.692541,16.1447787 252.261142,16.2073857 250.607762,16.3286867 L250.607762,31.6478357 L254.236013,31.6478357 L254.236013,26.3888481 C254.821586,26.4084128 255.265549,26.4084128 255.766921,26.4084128 C259.299491,26.4123258 262.445506,25.6297383 262.445506,21.3411592 Z M258.794291,21.3411592 C258.794291,23.0941551 257.764756,23.5050135 255.667412,23.5050135 L254.236013,23.5050135 L254.236013,19.052091 C254.66084,19.052091 255.185176,19.0325263 255.667412,19.0325263 C257.745619,19.0325263 258.771328,19.361213 258.794291,21.1376865 L258.794291,21.3411592 Z M277.38717,24.7845439 L277.38717,23.219369 C277.38717,17.8977745 274.723387,16.0039129 270.854017,16.0039129 C266.999957,16.0039129 264.340005,17.9016875 264.340005,23.219369 L264.340005,24.7845439 C264.340005,30.0826608 266.980821,32 270.854017,32 C274.74635,32 277.390993,30.0826608 277.38717,24.7845439 L277.38717,24.7845439 Z M273.674715,24.7610663 C273.674715,28.0205429 272.626043,29.0066031 270.85019,29.0066031 C269.097301,29.0066031 268.044801,28.01663 268.044801,24.7610663 L268.044801,23.2154561 C268.044801,20.0185865 269.074337,18.989484 270.85019,18.989484 C272.664316,18.989484 273.674715,20.0185865 273.674715,23.2154561 L273.674715,24.7610663 Z M292.895262,31.6478357 L289.546401,25.461482 C291.039036,24.718024 291.926963,23.5011005 291.926963,21.2355099 L291.926963,21.0907312 C291.926963,16.8843238 288.738847,16.1408657 284.968987,16.1408657 C283.112761,16.1408657 281.620126,16.2426021 280.127491,16.3247738 L280.127491,31.6439227 L283.75957,31.6439227 L283.75957,26.1814625 L286.017659,26.1814625 L289.083302,31.6439227 L292.895262,31.6478357 Z M288.279575,21.2981169 C288.279575,22.9689411 287.372512,23.5050135 285.133559,23.5050135 L283.763397,23.5050135 L283.763397,19.052091 C284.24946,19.0325263 284.609224,19.0325263 285.095287,19.0325263 C287.315103,19.0325263 288.283402,19.42382 288.283402,21.1572512 L288.279575,21.2981169 Z M305.601796,19.1342627 L305.601796,16.3286867 L293.13638,16.3286867 L293.13638,19.1342627 L297.472676,19.1342627 L297.472676,31.6517486 L301.2655,31.6517486 L301.2655,19.1342627 L305.601796,19.1342627 Z M319.257494,31.6478357 L315.04367,16.3286867 L309.195602,16.3286867 L305.020051,31.6478357 L308.893248,31.6478357 L309.980193,27.7935926 L314.236116,27.7935926 L315.303924,31.6478357 L319.257494,31.6478357 Z M313.730917,25.0310589 L310.504529,25.0310589 L311.572337,20.9694302 C311.771355,20.1946686 311.924446,19.4120812 312.035436,18.617755 L312.177045,18.617755 C312.299518,19.4003424 312.460263,20.2259721 312.640145,20.9694302 L313.730917,25.0310589 Z M331.095238,31.6478357 L331.095238,28.760088 L325.228034,28.760088 L325.228034,16.3247738 L321.43521,16.3247738 L321.43521,31.6439227 L331.095238,31.6478357 Z" id="name" fill="#150500"></path><path d="M10.0948219,37.6716178 L10.0370546,33.1481333 L10.0948219,33.1481333 L13.1901821,31.3127258 L27.9689628,39.8153352 L42.5118606,31.3223605 L45.7275693,33.1481333 L27.9111956,43.4765155 L27.9689628,43.4765155 L27.9689628,48 L10.0948219,37.6716178 Z M0,20.7771979 L0.00962787015,16.2537134 L3.16275534,14.4183059 L27.9689628,28.3934163 L51.5668725,15.3673224 L54.72,17.1930951 L27.9689628,32.0497792 L27.9689628,36.5732637 L0,20.7771979 Z M10.0996358,14.8518667 L10.0996358,10.3283822 L27.9689628,0 L45.7275693,10.3283822 L27.9689628,20.6567644 L27.9689628,25.1850662 L10.0996358,14.8518667 Z M21.431639,10.7812124 C21.431639,14.307507 24.2863025,16.3018868 27.8101029,16.3018868 L27.8149169,16.3018868 C31.3387173,16.3018868 34.1933808,14.3123244 34.1933808,10.7812124 C34.1933808,7.2549177 31.3339034,4.3934163 27.8101029,4.3934163 C24.2863025,4.3934163 21.431639,7.2549177 21.431639,10.7812124 L21.431639,10.7812124 Z" id="logo" fill="#150500"></path></g></svg>