<svg height="48" viewBox="0 0 48 48" width="48" xmlns="http://www.w3.org/2000/svg"><path d="m8.85510689 36.4858825-.050673-4.0208751h.050673l2.71522831-1.6314733 12.9638427 7.557875 12.7569279-7.5493109 2.8207971 1.6229092-15.628398 9.1807841h.050673v4.0208752zm-8.85510689-15.0172621.0084455-4.0208752 2.76590129-1.6314733 21.75983111 12.4223204 20.6999208-11.5787502 2.7659013 1.6229091-23.4658221 13.2059414v4.0208752zm8.85932964-5.2669611v-4.0208751l15.67484826-9.1807842 15.577725 9.1807842-15.577725 9.1807841v4.0251572zm9.94035366-3.6183594c0 3.1344841 2.5040908 4.9072661 5.5951438 4.9072661h.0042228c3.091053 0 5.5951438-1.7684999 5.5951438-4.9072661 0-3.13448416-2.5083135-5.67804097-5.5993666-5.67804097-3.091053 0-5.5951438 2.54355681-5.5951438 5.67804097z" fill="#150500"/></svg>