<svg width="24px" height="24px" viewBox="0 0 24 24" version="1.1" xmlns="http://www.w3.org/2000/svg" xmlns:xlink="http://www.w3.org/1999/xlink"><g id="icons/cable_connect" stroke="none" stroke-width="1" fill="none" fill-rule="evenodd"><polygon id="Path" points="4.12114787e-13 1.0658141e-13 24 1.0658141e-13 24 24 4.12114787e-13 24"></polygon><path d="M7.60134684,17 C7.60134684,18.7333333 8.72134684,20.2 10.2680135,20.76 L10.2680135,26.3333333 L12.9346802,26.3333333 L12.9346802,20.76 C14.4813468,20.2133333 15.6013468,18.7466667 15.6013468,17 L15.6013468,14.3333333 L7.60134684,14.3333333 L7.60134684,17 Z M12.9346802,-1.66666667 C12.9346802,-2.4 12.3346802,-3 11.6013468,-3 C10.8680135,-3 10.2680135,-2.4 10.2680135,-1.66666667 L10.2680135,3.66666667 L7.60134684,3.66666667 L7.60134684,11.6666667 L15.6013468,11.6666667 L15.6013468,3.66666667 L12.9346802,3.66666667 L12.9346802,-1.66666667 Z" id="Shape" fill="#150500" transform="translate(11.601347, 11.666667) rotate(45.000000) translate(-11.601347, -11.666667) "></path></g></svg>