<svg height="24" viewBox="0 0 24 24" width="24" xmlns="http://www.w3.org/2000/svg"><path d="m16 8.2h-3.2v1.52h3.2c1.368 0 2.48 1.112 2.48 2.48 0 1.144-.784 2.104-1.848 2.384l1.168 1.168c1.304-.664 2.2-1.992 2.2-3.552 0-2.208-1.792-4-4-4zm-.8 3.2h-1.752l1.6 1.6h.152zm-11.2-5.384 2.488 2.488c-1.456.592-2.488 2.024-2.488 3.696 0 2.208 1.792 4 4 4h3.2v-1.52h-3.2c-1.368 0-2.48-1.112-2.48-2.48 0-1.272.968-2.32 2.208-2.456l1.656 1.656h-.584v1.6h2.184l1.816 1.816v1.384h1.384l3.208 3.2 1.008-1.008-13.384-13.392z" fill="#150500" fill-rule="evenodd"/></svg>